<svg width="17" height="17" viewBox="0 0 17 17" fill="none" xmlns="http://www.w3.org/2000/svg">
<path d="M8.39797 0.99012C8.24728 0.993922 8.10395 1.05365 7.99794 1.15681C7.89192 1.25998 7.83143 1.3986 7.8291 1.5437V3.79352C7.83974 3.93373 7.90511 4.06486 8.01206 4.16058C8.11901 4.25629 8.25963 4.3095 8.40565 4.3095C8.55168 4.3095 8.6923 4.25629 8.79925 4.16058C8.9062 4.06486 8.97156 3.93373 8.98221 3.79352V1.5437C8.98058 1.39582 8.91821 1.25458 8.80874 1.15085C8.69926 1.04712 8.55158 0.98933 8.39797 0.99012Z" fill="#020002"/>
<path d="M8.39789 13.4145C8.24609 13.4183 8.10164 13.4782 7.99456 13.5819C7.88747 13.6855 7.82599 13.8249 7.82288 13.971V16.2209C7.82448 16.3672 7.88557 16.5071 7.99306 16.6106C8.10056 16.7141 8.24588 16.7729 8.39789 16.7744C8.54995 16.7722 8.69516 16.7132 8.80298 16.61C8.9108 16.5067 8.97282 16.3672 8.97598 16.2209V13.971C8.97438 13.8239 8.91296 13.6832 8.80489 13.5792C8.69683 13.4752 8.55071 13.416 8.39789 13.4145Z" fill="#020002"/>
<path d="M16.0084 8.18069H13.6715C13.5258 8.19093 13.3896 8.25386 13.2902 8.35682C13.1908 8.45979 13.1355 8.59516 13.1355 8.73574C13.1355 8.87632 13.1908 9.0117 13.2902 9.11466C13.3896 9.21762 13.5258 9.28055 13.6715 9.2908H16.0084C16.1541 9.28055 16.2903 9.21762 16.3897 9.11466C16.4891 9.0117 16.5444 8.87632 16.5444 8.73574C16.5444 8.59516 16.4891 8.45979 16.3897 8.35682C16.2903 8.25386 16.1541 8.19093 16.0084 8.18069Z" fill="#020002"/>
<path d="M3.18909 9.2908C3.33472 9.28055 3.47094 9.21762 3.57036 9.11466C3.66978 9.0117 3.72504 8.87632 3.72504 8.73574C3.72504 8.59516 3.66978 8.45979 3.57036 8.35682C3.47094 8.25386 3.33472 8.19093 3.18909 8.18069H0.85212C0.706483 8.19093 0.57027 8.25386 0.470848 8.35682C0.371426 8.45979 0.316162 8.59516 0.316162 8.73574C0.316162 8.87632 0.371426 9.0117 0.470848 9.11466C0.57027 9.21762 0.706483 9.28055 0.85212 9.2908H3.18909Z" fill="#020002"/>
<path d="M4.44666 11.9876L2.99835 13.379C2.9307 13.4471 2.86306 13.5122 2.79233 13.5773C2.69355 13.6834 2.64082 13.822 2.64501 13.9645C2.6492 14.1069 2.71 14.2424 2.81487 14.343C2.91974 14.4436 3.06069 14.5016 3.20867 14.5051C3.35666 14.5086 3.5004 14.4573 3.61027 14.3618L5.0555 12.9704L5.26152 12.7721C5.31502 12.7206 5.35747 12.6594 5.38642 12.5921C5.41538 12.5248 5.43028 12.4527 5.43028 12.3799C5.43028 12.307 5.41538 12.2349 5.38642 12.1676C5.35747 12.1003 5.31502 12.0391 5.26152 11.9876C5.20801 11.9361 5.1445 11.8953 5.07459 11.8674C5.00468 11.8395 4.92975 11.8252 4.85409 11.8252C4.77842 11.8252 4.70349 11.8395 4.63359 11.8674C4.56368 11.8953 4.50016 11.9361 4.44666 11.9876Z" fill="#020002"/>
<path d="M14.0805 4.18429C14.134 4.13278 14.1764 4.07163 14.2054 4.00433C14.2343 3.93703 14.2492 3.8649 14.2492 3.79205C14.2492 3.71921 14.2343 3.64707 14.2054 3.57977C14.1764 3.51247 14.134 3.45132 14.0805 3.39981C14.027 3.3483 13.9634 3.30744 13.8935 3.27957C13.8236 3.25169 13.7487 3.23734 13.673 3.23734C13.5974 3.23734 13.5224 3.25169 13.4525 3.27957C13.3826 3.30744 13.3191 3.3483 13.2656 3.39981L11.8265 4.79115L11.6205 4.98949C11.5124 5.09431 11.4521 5.23615 11.4526 5.38382C11.4532 5.5315 11.5147 5.6729 11.6236 5.77693C11.7325 5.88096 11.8798 5.93909 12.0332 5.93853C12.1866 5.93798 12.3335 5.87879 12.4415 5.77397L13.8867 4.38263L14.0805 4.18429Z" fill="#020002"/>
<path d="M4.2283 5.57857L4.43433 5.77395C4.54302 5.87683 4.68934 5.93447 4.84176 5.93447C4.99418 5.93447 5.1405 5.87683 5.24919 5.77395C5.3546 5.66859 5.41349 5.528 5.41349 5.38171C5.41349 5.23543 5.3546 5.09484 5.24919 4.98948L3.80088 3.59814L3.59794 3.3998C3.48807 3.30429 3.34433 3.25301 3.19634 3.25651C3.04836 3.26001 2.9074 3.31803 2.80253 3.4186C2.69766 3.51918 2.63687 3.65466 2.63268 3.79711C2.62849 3.93957 2.68122 4.07814 2.78 4.18427L4.2283 5.57857Z" fill="#020002"/>
<path d="M15.8487 14.9154C13.688 12.8353 11.5273 10.7552 9.36667 8.67505L8.44418 7.78696C7.74309 7.11498 6.65456 8.15996 7.35565 8.83491C9.51632 10.913 11.677 12.9931 13.8376 15.0752L14.7601 15.9633C15.4612 16.6353 16.5497 15.5903 15.8487 14.9154ZM10.0063 10.7029L9.74489 10.4483L7.89992 8.67209C7.69082 8.46783 8.01676 8.15404 8.22586 8.3583L8.4903 8.60993L10.3353 10.3861C10.5474 10.5904 10.2215 10.9042 10.0093 10.7029H10.0063Z" fill="#020002"/>
</svg>
