<svg width="17" height="18" viewBox="0 0 17 18" fill="none" xmlns="http://www.w3.org/2000/svg">
<path d="M3.3459 15.5649C3.59458 15.5649 3.79617 15.3708 3.79617 15.1314C3.79617 14.892 3.59458 14.698 3.3459 14.698C3.09722 14.698 2.89563 14.892 2.89563 15.1314C2.89563 15.3708 3.09722 15.5649 3.3459 15.5649Z" fill="#020002"/>
<path d="M16.2077 7.22849C16.2097 6.97818 16.1397 6.73222 16.0055 6.51783C15.7881 6.22294 15.5246 5.96049 15.2857 5.68625C15.2137 5.61715 15.1199 5.573 15.019 5.56073C14.9181 5.54846 14.8159 5.56875 14.7282 5.61843L14.1616 6.02242L14.4954 5.61843C14.5786 5.53405 14.625 5.42217 14.625 5.30585C14.625 5.18954 14.5786 5.07766 14.4954 4.99328L11.5672 2.23905C11.2241 1.91467 10.8963 1.56376 10.5318 1.26003C10.3336 1.10549 10.1015 0.996237 9.85301 0.940485C9.60455 0.884734 9.34619 0.883935 9.09737 0.938145C8.84854 0.992356 8.61572 1.10017 8.41641 1.25348C8.21709 1.40678 8.05648 1.6016 7.94663 1.82327C7.03383 3.5218 6.12614 5.22329 5.22356 6.92772C5.17054 6.90949 5.1163 6.8947 5.06122 6.88348C4.79183 6.83017 4.5126 6.84627 4.25175 6.93015C3.99089 7.01403 3.75766 7.16272 3.57564 7.36119C3.27847 7.58239 3.05572 7.88309 2.9353 8.22563C2.81488 8.56817 2.80215 8.93732 2.8987 9.2868C3.01029 9.61298 3.18953 9.91395 3.42555 10.1715C3.7196 10.545 4.0157 10.9185 4.31383 11.292C3.89113 11.5869 3.47762 11.8582 3.07329 12.1767C2.53132 12.551 2.01936 12.964 1.54177 13.4122C1.18057 13.7627 0.941225 14.2124 0.856737 14.6994C0.77225 15.1864 0.846783 15.6866 1.07006 16.1311C1.58159 17.2398 2.83744 17.6821 4.01978 17.3814C4.49964 17.243 4.91785 16.9545 5.20825 16.5616C5.91487 15.6599 6.56833 14.7207 7.16554 13.7484C7.47185 14.0433 7.75058 14.3382 8.03545 14.6331C8.39076 15.0105 8.74301 15.5177 9.26067 15.6828C9.9131 15.9011 10.3389 15.4735 10.7677 15.0783C11.1965 14.6832 11.8336 14.2969 11.9102 13.6835C11.9429 13.4399 11.8958 13.1924 11.7754 12.9758C11.7938 12.9758 11.8153 12.9493 11.8336 12.9316L13.8644 10.9735L15.0621 9.82054C15.3538 9.56071 15.6064 9.26295 15.8126 8.93588C16.119 8.41773 16.2566 7.82288 16.2077 7.22849ZM10.5012 14.0639C10.2715 14.2762 10.054 14.518 9.81508 14.7156C9.57617 14.9132 9.45671 14.7775 9.27599 14.6095C9.09527 14.4414 8.8778 14.1848 8.66338 13.9755C8.24987 13.539 7.8241 13.1173 7.38608 12.7045C7.33593 12.658 7.27559 12.6229 7.20949 12.6019C7.14339 12.5808 7.07323 12.5743 7.00416 12.5827C6.9351 12.5912 6.86889 12.6145 6.81041 12.6509C6.75193 12.6873 6.70268 12.7358 6.66627 12.793C6.05365 13.6983 5.4778 14.6124 4.84681 15.4971C4.68773 15.7317 4.51059 15.9544 4.3169 16.1635C4.22408 16.2782 4.10443 16.3701 3.96771 16.4318C3.95197 16.4383 3.93748 16.4473 3.92482 16.4584C3.90964 16.4557 3.89407 16.4557 3.87888 16.4584C3.74567 16.498 3.60946 16.5276 3.47149 16.5469C3.2217 16.5869 2.96545 16.5654 2.72659 16.4845C2.48773 16.4035 2.27402 16.2657 2.10537 16.0839C1.84453 15.7916 1.70652 15.4161 1.71842 15.0309C1.73032 14.6458 1.89127 14.2788 2.16969 14.002C3.08134 13.1477 4.0892 12.394 5.17455 11.755C5.27504 11.6955 5.34813 11.6013 5.37888 11.4917C5.40962 11.3821 5.3957 11.2653 5.33996 11.1652C4.82081 10.572 4.33316 9.95394 3.87888 9.31333C3.80013 9.19519 3.74965 9.06167 3.73111 8.92244C3.71257 8.7832 3.72642 8.64174 3.77167 8.5083C3.81488 8.38669 3.88253 8.27447 3.97077 8.17803C4.00447 8.14264 4.04735 8.10725 4.07798 8.08071C4.12812 8.05443 4.17278 8.01944 4.20969 7.97751C4.264 7.91068 4.33162 7.85497 4.4086 7.81365C4.48558 7.77233 4.57036 7.74623 4.65796 7.73689C4.74556 7.72755 4.83421 7.73516 4.91872 7.75926C5.00322 7.78336 5.08187 7.82347 5.15005 7.87724C5.60837 8.26243 6.04497 8.67094 6.45798 9.10102L9.68644 12.1088L10.5073 12.8726C10.6697 13.023 10.8902 13.1439 10.9637 13.3503C11.0954 13.6806 10.7187 13.8604 10.5012 14.0639ZM15.2398 7.92148C15.1501 8.28316 14.9631 8.61572 14.6976 8.88574C14.376 9.21306 14.036 9.52271 13.7052 9.84118L11.1965 12.2651C10.6758 11.752 10.1275 11.2684 9.59149 10.7701L6.25275 7.65903L5.99546 7.41427C6.76122 5.98113 7.52494 4.54799 8.28662 3.11485C8.48266 2.74919 8.66338 2.15354 9.03707 1.89699C9.139 1.82829 9.25731 1.78549 9.38101 1.7726C9.50472 1.75971 9.6298 1.77715 9.74464 1.82327C9.80398 1.84795 9.86045 1.87859 9.91311 1.91468C10.8688 2.78459 11.7938 3.68399 12.7342 4.56864L13.5551 5.34124L11.3252 8.03942C11.0189 8.39623 11.4232 9.06269 11.8796 8.73536L14.8998 6.5886C15.0382 6.71567 15.1578 6.86055 15.2551 7.01913C15.3379 7.31535 15.3326 7.62802 15.2398 7.92148Z" fill="#020002"/>
</svg>
