<svg width="17" height="8" viewBox="0 0 17 8" fill="none" xmlns="http://www.w3.org/2000/svg">
<path d="M9.297 4.71785C8.7927 3.37079 7.83641 2.22398 6.57931 1.4587C5.56017 0.877912 4.29504 0.635453 3.17341 1.07527C2.44109 1.35951 1.8205 1.85879 1.39989 2.50211C0.97928 3.14544 0.780062 3.90006 0.830566 4.65866C0.898136 5.3544 1.16691 6.018 1.60638 6.57414C2.04585 7.13028 2.63844 7.5567 3.31691 7.80503C4.48833 8.19974 5.84424 7.91218 6.90731 7.33985C7.53775 6.99601 8.10073 6.54849 8.57072 6.01758C8.83275 5.74865 9.05901 5.44937 9.24429 5.12666C9.39658 4.81089 9.379 4.39364 9.49614 4.05531C9.89443 2.90502 11.0219 1.98592 12.3105 1.99438C13.599 2.00284 14.8788 2.84019 15.0985 4.0807C15.3474 5.49037 13.9915 6.86902 12.5506 6.90004C11.0424 6.93105 9.82414 5.8597 9.24429 4.59382C9.16932 4.47393 9.0486 4.38704 8.90795 4.35174C8.76729 4.31644 8.61788 4.33552 8.49165 4.40491C8.36882 4.47855 8.28 4.59474 8.2435 4.72954C8.207 4.86434 8.22558 5.00748 8.29544 5.12948C8.5917 5.80327 9.04681 6.40141 9.62475 6.87656C10.2027 7.35172 10.8876 7.69083 11.6252 7.86707C12.3493 8.01624 13.1029 7.95887 13.7937 7.70198C14.4845 7.44509 15.0824 6.99983 15.5143 6.42075C15.9965 5.80529 16.2387 5.04625 16.1986 4.27632C16.1584 3.50638 15.8385 2.77452 15.2947 2.20865C14.7788 1.67133 14.1168 1.284 13.3838 1.09064C12.6508 0.897276 11.8762 0.905629 11.1478 1.11474C10.3333 1.39604 9.62273 1.90182 9.10459 2.56907C8.58646 3.23632 8.28367 4.03557 8.23394 4.86729L8.30715 4.58535C7.66951 5.63679 6.64872 6.42257 5.44303 6.79008C4.43854 7.07201 3.41062 6.91131 2.68141 6.1529C2.21742 5.68628 1.95577 5.06686 1.94978 4.42093C1.9438 3.775 2.19393 3.15117 2.64919 2.67665C3.00687 2.31011 3.47364 2.05913 3.98541 1.95817C4.49717 1.85721 5.02885 1.91122 5.50746 2.11279C6.80481 2.60617 7.75366 3.77901 8.25151 4.99979C8.29435 5.13262 8.38815 5.24476 8.51383 5.31337C8.6395 5.38198 8.7876 5.40192 8.928 5.36914C9.06535 5.32802 9.18069 5.23702 9.24956 5.11546C9.31844 4.99389 9.33545 4.85129 9.297 4.71785Z" fill="#020002"/>
</svg>
