<svg width="13" height="16" viewBox="0 0 13 16" fill="none" xmlns="http://www.w3.org/2000/svg">
<path d="M1.82975 9.22978C2.46087 9.22978 2.97249 8.73725 2.97249 8.12967C2.97249 7.52209 2.46087 7.02954 1.82975 7.02954C1.19863 7.02954 0.687012 7.52209 0.687012 8.12967C0.687012 8.73725 1.19863 9.22978 1.82975 9.22978Z" fill="#020002"/>
<path d="M4.33908 5.68558C4.84883 6.37004 5.12297 7.19106 5.12297 8.03327C5.12297 8.87548 4.84883 9.69652 4.33908 10.381C4.29635 10.4414 4.26701 10.5097 4.25286 10.5815C4.23871 10.6534 4.24006 10.7272 4.25683 10.7985C4.2736 10.8698 4.30543 10.9371 4.35034 10.996C4.39524 11.055 4.45227 11.1044 4.51787 11.1413C4.58347 11.1781 4.65624 11.2016 4.73166 11.2102C4.80708 11.2188 4.88353 11.2124 4.95626 11.1913C5.02899 11.1703 5.09644 11.135 5.15443 11.0878C5.21242 11.0406 5.25969 10.9824 5.29332 10.9169C5.90443 10.0704 6.23197 9.06414 6.23197 8.03327C6.23197 7.0024 5.90443 5.99619 5.29332 5.14969C5.21745 5.03043 5.09658 4.94405 4.95605 4.90864C4.81551 4.87323 4.66618 4.89154 4.53935 4.95972C4.41323 5.03078 4.3214 5.14696 4.28388 5.28293C4.24637 5.4189 4.26621 5.56364 4.33908 5.68558Z" fill="#020002"/>
<path d="M6.3625 3.61006C7.22587 4.43303 7.83725 5.46893 8.12962 6.60423C8.33064 7.42328 8.35595 8.27319 8.20403 9.10199C8.0521 9.93079 7.72614 10.721 7.24606 11.4244C6.99559 11.8073 6.69901 12.1604 6.3625 12.4763C5.85298 12.9555 6.63641 13.7069 7.14298 13.2277C7.8559 12.5485 8.42185 11.7399 8.8081 10.8488C9.19434 9.9577 9.39322 9.00168 9.39322 8.03609C9.39322 7.0705 9.19434 6.1145 8.8081 5.22338C8.42185 4.33226 7.8559 3.52371 7.14298 2.84451C6.63641 2.36533 5.85298 3.12806 6.3625 3.59873V3.61006Z" fill="#020002"/>
<path d="M8.80411 1.71888C8.89247 1.82662 8.77171 1.67635 8.83062 1.7529C8.88952 1.82946 8.90425 1.84363 8.9396 1.89183C9.02501 2.00241 9.10746 2.11867 9.18993 2.23492C9.40257 2.53703 9.59917 2.84932 9.77897 3.17059C10.2756 4.06138 10.6367 5.01627 10.851 6.00598C11.3253 8.2518 11.0038 10.5859 9.93801 12.6351C9.73767 13.0205 9.51446 13.3944 9.26946 13.7551C9.17521 13.894 9.07802 14.0386 8.97494 14.1605C8.93665 14.2144 8.89247 14.2683 8.85123 14.3222C8.83612 14.3441 8.8194 14.3649 8.80117 14.3845C8.70512 14.4884 8.65205 14.6226 8.65205 14.7616C8.65205 14.9007 8.70512 15.0349 8.80117 15.1387C8.90564 15.2366 9.04564 15.2914 9.1914 15.2914C9.33717 15.2914 9.47718 15.2366 9.58165 15.1387C11.2485 13.1246 12.1562 10.6255 12.1562 8.05028C12.1562 5.47502 11.2485 2.97597 9.58165 0.96182C9.47754 0.863289 9.33739 0.808075 9.1914 0.808075C9.04542 0.808075 8.90528 0.863289 8.80117 0.96182C8.70021 1.06274 8.6438 1.1974 8.6438 1.33751C8.6438 1.47762 8.70021 1.61229 8.80117 1.7132L8.80411 1.71888Z" fill="#020002"/>
</svg>
