<svg width="13" height="13" viewBox="0 0 13 13" fill="none" xmlns="http://www.w3.org/2000/svg">
<path d="M4.25227 12.0537H3.47681C2.96722 12.0537 2.43825 12.0537 1.92035 12.0537H1.85665H1.79849H1.73479V12.037L1.66833 12.0149L1.59355 11.99C1.42644 11.9304 1.2802 11.8236 1.17258 11.6825C1.09394 11.5762 1.03399 11.4573 0.995335 11.3308C0.971268 11.2614 0.960008 11.1882 0.962103 11.1148V11.0511C0.962103 10.7741 0.962103 10.4972 0.962103 10.2202V8.481C0.953211 8.36774 0.901942 8.26199 0.818523 8.18486C0.735104 8.10774 0.625669 8.0649 0.512059 8.0649C0.398449 8.0649 0.289014 8.10774 0.205595 8.18486C0.122176 8.26199 0.0709068 8.36774 0.062015 8.481C0.062015 8.75795 0.062015 9.04874 0.062015 9.334C0.062015 9.8879 0.062015 10.4695 0.062015 11.0372C0.0612673 11.4435 0.189627 11.8395 0.428567 12.168C0.667507 12.4965 1.00467 12.7407 1.39138 12.8651C1.75362 12.9531 2.1277 12.9821 2.49918 12.951H2.82044H4.26335C4.32426 12.9534 4.38495 12.9423 4.44101 12.9183C4.49706 12.8944 4.54706 12.8582 4.58738 12.8125C4.65923 12.7253 4.69754 12.6153 4.69539 12.5023C4.69896 12.4429 4.68998 12.3835 4.66905 12.3278C4.64812 12.2721 4.6157 12.2215 4.5739 12.1792C4.5321 12.1368 4.48186 12.1038 4.42645 12.0822C4.37103 12.0605 4.31169 12.0508 4.25227 12.0537Z" fill="#020002"/>
<path d="M12.2866 8.481C12.2777 8.36774 12.2265 8.26199 12.143 8.18486C12.0596 8.10774 11.9502 8.0649 11.8366 8.0649C11.723 8.0649 11.6135 8.10774 11.5301 8.18486C11.4467 8.26199 11.3954 8.36774 11.3865 8.481V10.9902C11.3998 11.1713 11.3624 11.3525 11.2785 11.5136C11.2536 11.5619 11.2249 11.6082 11.1927 11.6521C11.1809 11.6687 11.1679 11.6844 11.1539 11.6992C11.1234 11.7324 11.093 11.7656 11.0597 11.7961L11.0431 11.8099L10.9905 11.8487C10.8696 11.9436 10.7267 12.0065 10.5751 12.0315H10.5335H10.4948H8.04097C7.92771 12.0404 7.82196 12.0917 7.74483 12.1751C7.66771 12.2585 7.62488 12.3679 7.62488 12.4815C7.62488 12.5952 7.66771 12.7046 7.74483 12.788C7.82196 12.8714 7.92771 12.9227 8.04097 12.9316H9.28171H9.67221C9.96 12.9482 10.2485 12.9482 10.5363 12.9316C11.0077 12.8899 11.447 12.6754 11.7696 12.3292C12.0923 11.9831 12.2754 11.5298 12.2838 11.0566C12.2838 10.7963 12.2838 10.536 12.2838 10.2756V8.481H12.2866Z" fill="#020002"/>
<path d="M11.14 11.6141C11.1573 11.5881 11.1545 11.5909 11.14 11.6141V11.6141Z" fill="#020002"/>
<path d="M12.2865 2.27178C12.2823 1.83278 12.1264 1.40874 11.8452 1.07156C11.5641 0.734382 11.175 0.504806 10.7439 0.421751C10.4207 0.380575 10.0944 0.368524 9.76901 0.385746H8.04362C7.98281 0.384044 7.92236 0.395543 7.86642 0.419448C7.81048 0.443353 7.76038 0.479098 7.71959 0.524221C7.64817 0.612743 7.60997 0.723452 7.61158 0.837176C7.60812 0.895589 7.6168 0.954085 7.63707 1.00898C7.65734 1.06387 7.68876 1.11397 7.72935 1.15612C7.76994 1.19827 7.81881 1.23155 7.8729 1.25388C7.92699 1.2762 7.98512 1.28708 8.04362 1.28583H8.82462C9.33698 1.28583 9.86595 1.28583 10.3866 1.28583H10.4088C10.4586 1.28583 10.5085 1.28583 10.5556 1.28583H10.586H10.6137L10.694 1.30799H10.7217V1.29414L10.7993 1.32461C10.8177 1.3312 10.8334 1.34391 10.8436 1.36061H10.8657L10.9211 1.39108L10.971 1.42154H10.9904C11.0553 1.47846 11.1154 1.54052 11.1704 1.6071L11.2009 1.65141L11.2147 1.66803L11.2424 1.72065L11.2756 1.79543C11.2818 1.81433 11.2818 1.83468 11.2756 1.85358L11.2922 1.9062C11.298 1.9334 11.3054 1.96022 11.3144 1.98652C11.3136 1.99573 11.3136 2.005 11.3144 2.01421C11.316 2.02152 11.316 2.02907 11.3144 2.03637C11.3144 2.08068 11.3144 2.125 11.3144 2.17208C11.3144 2.42687 11.3144 2.67335 11.3144 2.91707V4.57877C11.3132 4.63727 11.324 4.6954 11.3464 4.74949C11.3687 4.80358 11.402 4.85246 11.4441 4.89304C11.4863 4.93363 11.5364 4.96505 11.5913 4.98532C11.6462 5.00559 11.7046 5.01427 11.7631 5.01082C11.8774 5.01363 11.9889 4.97419 12.076 4.90003C12.1217 4.86027 12.1578 4.81076 12.1818 4.75515C12.2058 4.69955 12.2169 4.63927 12.2145 4.57877C12.2145 4.30182 12.2145 4.04703 12.2145 3.78116C12.292 3.34081 12.2948 2.80075 12.2865 2.27178Z" fill="#020002"/>
<path d="M10.7632 1.42412C10.8178 1.42412 10.7168 1.39408 10.7632 1.42412V1.42412Z" fill="#020002"/>
<path d="M10.9657 1.54627C10.9323 1.51844 10.9323 1.51844 10.9657 1.54627V1.54627Z" fill="#020002"/>
<path d="M0.0398446 4.66136C0.0487364 4.77462 0.10001 4.88037 0.183429 4.9575C0.266848 5.03462 0.376278 5.07746 0.489888 5.07746C0.603499 5.07746 0.712933 5.03462 0.796352 4.9575C0.879771 4.88037 0.93104 4.77462 0.939932 4.66136V3.87482C0.939932 3.34862 0.939932 2.82518 0.939932 2.30175V2.21312C0.940566 2.20206 0.940566 2.19096 0.939932 2.17989V2.13281C0.960444 1.96532 1.02762 1.80698 1.1338 1.67584L1.16149 1.64261C1.16149 1.62876 1.17811 1.61768 1.18088 1.61768C1.20626 1.58956 1.23307 1.56275 1.2612 1.53737L1.31382 1.49305C1.35536 1.46536 1.3969 1.43766 1.44121 1.41274L1.52707 1.36843L1.57692 1.35181H1.5963C1.64892 1.33519 1.70155 1.32411 1.7514 1.31304H1.78186H1.83725C2.08651 1.31304 2.3413 1.31304 2.58778 1.31304H4.22733C4.34059 1.30414 4.44634 1.25288 4.52346 1.16946C4.60059 1.08604 4.64342 0.976603 4.64342 0.862992C4.64342 0.749382 4.60059 0.639948 4.52346 0.556529C4.44634 0.47311 4.34059 0.42184 4.22733 0.412949H2.67364H1.89541C1.43288 0.416096 0.987536 0.588607 0.643581 0.897861C0.299626 1.20711 0.0809034 1.63167 0.0287684 2.09127C0.0014956 2.3766 -0.0049857 2.66354 0.00937988 2.94981C0.00937988 3.06613 0.00937988 3.18522 0.00937988 3.29877L0.0398446 4.66136Z" fill="#020002"/>
<path d="M4.30484 4.68401H3.47399C3.33737 4.68401 3.20634 4.73828 3.10974 4.83489C3.01313 4.93149 2.95886 5.06252 2.95886 5.19914V8.56131C2.95886 8.69793 3.01313 8.82896 3.10974 8.92556C3.20634 9.02217 3.33737 9.07644 3.47399 9.07644H8.64742C8.78429 9.07644 8.9156 9.02226 9.01264 8.92573C9.10969 8.8292 9.16458 8.69819 9.16531 8.56131V5.19914C9.16458 5.06226 9.10969 4.93125 9.01264 4.83472C8.9156 4.73819 8.78429 4.68401 8.64742 4.68401H7.81657C7.7652 4.68423 7.7143 4.67431 7.66678 4.65483C7.61926 4.63534 7.57604 4.60667 7.53962 4.57046L7.06603 4.09688C7.00616 4.03675 6.93492 3.98913 6.85647 3.9568C6.77802 3.92447 6.69392 3.90807 6.60907 3.90855H5.48741C5.40258 3.90822 5.31853 3.92469 5.2401 3.95702C5.16167 3.98934 5.09041 4.03687 5.03045 4.09688L4.57902 4.576C4.54265 4.61113 4.49972 4.63875 4.45267 4.65728C4.40563 4.67581 4.3554 4.6849 4.30484 4.68401ZM6.07178 5.02189C6.41292 5.02244 6.74623 5.12409 7.02961 5.31402C7.31298 5.50394 7.5337 5.7736 7.66387 6.08892C7.79403 6.40425 7.82781 6.75108 7.76092 7.08559C7.69403 7.4201 7.52948 7.72728 7.28807 7.9683C7.04666 8.20933 6.73922 8.37339 6.4046 8.43974C6.06998 8.50609 5.72321 8.47175 5.40809 8.34108C5.09298 8.21041 4.82367 7.98926 4.6342 7.70558C4.44473 7.4219 4.34361 7.08842 4.34361 6.74729C4.34361 6.52047 4.38833 6.29588 4.47521 6.08637C4.56209 5.87685 4.68943 5.68652 4.84995 5.52627C5.01046 5.36601 5.20099 5.23898 5.41065 5.15243C5.6203 5.06589 5.84497 5.02153 6.07178 5.02189Z" fill="#020002"/>
<path d="M6.0718 8.04342C6.7861 8.04342 7.36516 7.46436 7.36516 6.75006C7.36516 6.03576 6.7861 5.4567 6.0718 5.4567C5.3575 5.4567 4.77844 6.03576 4.77844 6.75006C4.77844 7.46436 5.3575 8.04342 6.0718 8.04342Z" fill="#020002"/>
</svg>
