<svg width="15" height="15" viewBox="0 0 15 15" fill="none" xmlns="http://www.w3.org/2000/svg">
<path d="M7.23202 0.260926C5.8021 0.26034 4.40412 0.683826 3.2149 1.47782C2.02568 2.27182 1.09863 3.40066 0.55102 4.72157C0.00340613 6.04247 -0.140178 7.49611 0.138427 8.89863C0.417032 10.3011 1.10531 11.5895 2.11621 12.6009C3.12712 13.6122 4.41522 14.301 5.81763 14.5802C7.22003 14.8593 8.67374 14.7164 9.99487 14.1693C11.316 13.6222 12.4452 12.6956 13.2397 11.5067C14.0342 10.3178 14.4582 8.92003 14.4582 7.49011C14.4559 5.57404 13.6939 3.73709 12.3393 2.38195C10.9847 1.02681 9.14809 0.26406 7.23202 0.260926ZM13.5105 7.49011C13.5108 8.97976 12.9794 10.4206 12.012 11.5534L3.16875 2.71014C4.0806 1.93123 5.19672 1.43017 6.38472 1.2664C7.57273 1.10263 8.78278 1.28301 9.87137 1.78616C10.96 2.2893 11.8814 3.0941 12.5264 4.10509C13.1715 5.11609 13.513 6.29087 13.5105 7.49011ZM0.950544 7.49011C0.954886 5.96097 1.51844 4.48625 2.53498 3.34392L11.3871 12.196C10.4833 13 9.36616 13.5253 8.17048 13.7087C6.97481 13.892 5.75162 13.7256 4.64841 13.2294C3.54521 12.7332 2.6091 11.9285 1.95297 10.9122C1.29684 9.89597 0.948705 8.71161 0.950544 7.50196V7.49011Z" fill="#020002"/>
</svg>
