<svg width="15" height="18" viewBox="0 0 15 18" fill="none" xmlns="http://www.w3.org/2000/svg">
<path d="M8.23446 1.03462C8.23034 0.939163 8.2012 0.846258 8.14976 0.764551C8.09832 0.682843 8.02626 0.614988 7.94026 0.567299C7.87714 0.533958 7.80632 0.51642 7.73432 0.516312C7.64131 0.517573 7.55055 0.544085 7.47248 0.592789L1.23551 4.27475L0.923657 4.45601C0.714777 4.5778 0.497071 4.69959 0.294075 4.83271C-0.00012207 5.02247 -0.00012207 5.27737 -0.00012207 5.57192V12.9358C-0.00012207 13.0673 0.0541233 13.1934 0.150675 13.2863C0.247228 13.3793 0.378177 13.4315 0.514723 13.4315C0.651268 13.4315 0.782223 13.3793 0.878775 13.2863C0.975327 13.1934 1.02957 13.0673 1.02957 12.9358V5.55493H1.04722L7.98733 1.45663C8.06486 1.41499 8.12896 1.35356 8.17256 1.2791C8.21617 1.20464 8.23759 1.12005 8.23446 1.03462Z" fill="#020002"/>
<path d="M11.1705 2.50172C11.129 2.43074 11.0694 2.37113 10.9974 2.32851C10.9253 2.28588 10.8431 2.26167 10.7586 2.25815C10.6647 2.25949 10.573 2.28596 10.4938 2.33462L4.2598 6.01657C4.15683 6.07888 4.05092 6.13835 3.94501 6.19783C3.73613 6.31679 3.52136 6.44141 3.31837 6.57169C3.02417 6.76429 3.02417 7.01919 3.02417 7.31375V14.6777C3.02417 14.8091 3.07842 14.9352 3.17497 15.0281C3.27152 15.1211 3.40247 15.1733 3.53901 15.1733C3.67556 15.1733 3.80651 15.1211 3.90307 15.0281C3.99962 14.9352 4.05386 14.8091 4.05386 14.6777V7.28543H4.07152L11.0116 3.18996C11.0699 3.15562 11.1204 3.11033 11.1602 3.05678C11.1999 3.00324 11.228 2.94253 11.2428 2.8783C11.2576 2.81407 11.2589 2.74763 11.2465 2.68293C11.234 2.61823 11.2082 2.5566 11.1705 2.50172Z" fill="#020002"/>
<path d="M14.3772 11.9644V4.45882C14.3754 4.36976 14.3492 4.28274 14.3011 4.20663C14.2531 4.13051 14.1849 4.06801 14.1036 4.02549C14.0274 3.98361 13.9413 3.96118 13.8535 3.96034C13.7647 3.95968 13.6777 3.98432 13.6035 4.03115L7.15466 7.83489L6.93401 7.96519L6.50449 8.22009L6.46035 8.24558L6.39564 8.28523C6.07791 8.50898 6.10144 8.9055 6.12791 9.29069C6.12791 9.38416 6.12791 9.47196 6.12791 9.55692L6.18381 16.8359C6.18069 16.9124 6.19831 16.9885 6.23493 17.0565C6.27155 17.1245 6.32592 17.1822 6.39269 17.2239C6.46816 17.2913 6.56522 17.332 6.66789 17.3392C6.77056 17.3464 6.87272 17.3197 6.95755 17.2636L12.6297 13.9158L13.0827 13.6524C13.3769 13.4796 13.6888 13.3012 13.9859 13.1171C14.0948 13.0693 14.1878 12.9935 14.2547 12.898C14.3217 12.8026 14.36 12.6912 14.3654 12.5761C14.3654 12.4402 14.3654 12.2929 14.3654 12.1683L14.3772 11.9644ZM13.3475 12.3382H13.3299L7.21644 15.955V15.8927L7.16643 8.9933H7.18408L13.3475 5.334V12.3382Z" fill="#020002"/>
</svg>
