<svg width="14" height="15" viewBox="0 0 14 15" fill="none" xmlns="http://www.w3.org/2000/svg">
<path d="M9.6517 3.99623C9.42806 3.99623 9.20945 4.06011 9.02355 4.17978C8.83764 4.29945 8.6928 4.46953 8.60735 4.66849C8.5219 4.86746 8.49969 5.08635 8.54354 5.29747C8.58738 5.50859 8.69529 5.70245 8.85363 5.85449C9.01197 6.00653 9.21361 6.10992 9.43302 6.15158C9.65243 6.19325 9.87974 6.1713 10.0862 6.08853C10.2926 6.00575 10.4689 5.86587 10.5928 5.68659C10.7166 5.5073 10.7824 5.29668 10.7818 5.08139C10.781 4.79333 10.6616 4.51732 10.4498 4.31389C10.2379 4.11047 9.95091 3.99623 9.6517 3.99623Z" fill="#020002"/>
<path d="M13.6186 0.768791C13.5675 0.727827 13.5074 0.698488 13.4428 0.682954C13.3783 0.66742 13.311 0.666087 13.2458 0.679061C10.036 1.29479 7.17132 3.02033 5.19242 5.53C4.16396 5.65852 3.1915 6.05501 2.37997 6.67666C1.56845 7.29831 0.948681 8.12152 0.587567 9.05745C0.543066 9.11489 0.519518 9.18488 0.520578 9.25653C0.508701 9.34398 0.532367 9.43248 0.586638 9.50353C0.640909 9.57459 0.72159 9.62272 0.81184 9.63788C0.864248 9.65793 0.920551 9.66681 0.976865 9.6639C1.03318 9.661 1.08817 9.64638 1.13806 9.62106L1.21378 9.5818C1.7497 9.32383 2.74582 8.83873 3.27592 9.15278C3.37844 9.23737 3.46204 9.34114 3.52162 9.45779C3.58121 9.57444 3.61553 9.70154 3.62252 9.83136C3.63999 9.91548 3.65747 9.99399 3.68077 10.0669C3.73496 10.3015 3.84682 10.5203 4.00697 10.7047C4.16712 10.8891 4.37088 11.0339 4.60116 11.1268C4.85706 11.2171 5.13176 11.247 5.40213 11.2137L5.5798 11.1913C5.7567 11.1483 5.94272 11.1551 6.11572 11.2109C6.15067 11.2277 6.16523 11.239 6.20601 11.2978C6.24845 11.3659 6.27711 11.4411 6.29047 11.5194C6.47105 12.254 6.20018 13.1457 5.98173 13.8635C5.95843 13.9392 5.93513 14.0121 5.91475 14.085C5.89269 14.1542 5.89285 14.2281 5.9152 14.2972C5.93755 14.3662 5.98104 14.4271 6.03999 14.472C6.11509 14.5328 6.20984 14.5665 6.30795 14.5673C6.37471 14.5664 6.44041 14.5511 6.50018 14.5225C7.44915 14.0496 8.25797 13.3527 8.85092 12.497C9.44386 11.6412 9.80154 10.6546 9.89047 9.62947C12.3254 7.18998 13.6973 4.14482 13.7613 1.052C13.7621 0.997349 13.7496 0.943275 13.7249 0.894102C13.7001 0.844929 13.6637 0.802016 13.6186 0.768791ZM7.11474 11.7549C7.07979 11.1941 6.8963 10.7987 6.573 10.5856C6.37434 10.4609 6.14007 10.3991 5.90309 10.409C5.77202 10.409 5.64096 10.409 5.50989 10.4314L5.33222 10.4482C4.83708 10.4875 4.55164 10.28 4.41766 9.78089C4.26329 9.20606 4.08562 8.55553 3.3429 8.35644C2.80095 8.2453 2.23641 8.30122 1.72932 8.51628C2.10724 7.88809 2.63924 7.35859 3.27883 6.97407C3.93667 6.60964 4.66172 6.37157 5.41377 6.27307C5.68465 6.2254 5.88271 5.95901 6.05747 5.72628C6.11572 5.65057 6.16814 5.58047 6.22057 5.51879C6.51183 5.20474 6.80309 4.90191 7.09435 4.6187C7.83492 3.91774 8.66254 3.30745 9.55843 2.8017C10.6093 2.21749 11.7452 1.78837 12.9283 1.52868C12.7787 3.59917 12.0544 5.59303 10.8312 7.30213C10.3727 7.93752 9.86337 8.53753 9.30794 9.09671C9.13901 9.2969 9.04923 9.54824 9.05455 9.80612C9.05455 9.89585 9.03416 9.98838 9.01668 10.0865C8.92352 10.5731 8.76081 11.0449 8.53319 11.4885C8.15746 12.2155 7.61098 12.8481 6.93708 13.3364C7.07766 12.8168 7.13752 12.2801 7.11474 11.7437V11.7549Z" fill="#020002"/>
<path d="M4.26909 12.1531C4.22418 12.1547 4.18015 12.1655 4.13995 12.1849C4.09976 12.2042 4.06434 12.2316 4.03608 12.2653C3.96324 12.3578 3.87915 12.4416 3.78559 12.5148L3.7652 12.5317L3.72734 12.5597L3.63122 12.6214L3.50015 12.6915L3.44773 12.7167H3.43025H3.39821C3.193 12.7988 2.96982 12.8306 2.7487 12.8093H2.66715L2.59724 12.7952V12.7784C2.59284 12.7177 2.59284 12.6568 2.59724 12.5962C2.59724 12.5653 2.59724 12.5345 2.59724 12.5064C2.59724 12.4784 2.59724 12.4812 2.59724 12.4812V12.4503C2.61903 12.3454 2.64921 12.2423 2.68753 12.1419V12.1139C2.69896 12.097 2.70872 12.0792 2.71666 12.0606C2.73996 12.0185 2.76618 11.9765 2.79239 11.9344L2.84481 11.8587V11.8447L2.86812 11.8194L2.90015 11.7802C2.95198 11.7209 3.00846 11.6656 3.06909 11.6147L3.1419 11.5503L3.19142 11.5166L3.24676 11.4802C3.33706 11.4267 3.40216 11.3414 3.42826 11.2425C3.45436 11.1435 3.4394 11.0387 3.38656 10.9502C3.35328 10.9025 3.31033 10.8617 3.26028 10.8304C3.21022 10.7991 3.1541 10.7778 3.0953 10.7679C3.04914 10.758 3.00137 10.757 2.95483 10.7652C2.90829 10.7734 2.86394 10.7905 2.82443 10.8156C2.53045 10.9966 2.28183 11.2381 2.09649 11.5227C1.91114 11.8073 1.79369 12.128 1.75258 12.4616C1.73073 12.6879 1.74746 12.9162 1.8021 13.1373C1.81588 13.2174 1.85264 13.2921 1.90824 13.353C1.96383 13.414 2.03602 13.4587 2.11666 13.4822C2.17475 13.5018 2.2341 13.5177 2.29433 13.5299C2.46331 13.5679 2.63633 13.5867 2.80986 13.586C3.12973 13.5859 3.44611 13.5219 3.73899 13.3981C4.06063 13.2621 4.3434 13.0534 4.56326 12.7896C4.63538 12.7167 4.6756 12.6198 4.6756 12.519C4.6756 12.4183 4.63538 12.3214 4.56326 12.2485C4.47963 12.1848 4.37565 12.1511 4.26909 12.1531Z" fill="#020002"/>
</svg>
