<svg width="16" height="9" viewBox="0 0 16 9" fill="none" xmlns="http://www.w3.org/2000/svg">
<path d="M0.749076 1.62252H14.6963C14.8307 1.61306 14.9565 1.55496 15.0483 1.4599C15.1401 1.36485 15.1911 1.23987 15.1911 1.11009C15.1911 0.980301 15.1401 0.855325 15.0483 0.760268C14.9565 0.66521 14.8307 0.607115 14.6963 0.597656H0.749076C0.614622 0.607115 0.488868 0.66521 0.397081 0.760268C0.305293 0.855325 0.254272 0.980301 0.254272 1.11009C0.254272 1.23987 0.305293 1.36485 0.397081 1.4599C0.488868 1.55496 0.614622 1.61306 0.749076 1.62252Z" fill="#020002"/>
<path d="M2.16289 5.21912H13.3394C13.4738 5.20966 13.5996 5.15156 13.6914 5.05651C13.7832 4.96145 13.8342 4.83647 13.8342 4.70669C13.8342 4.5769 13.7832 4.45192 13.6914 4.35686C13.5996 4.26181 13.4738 4.20372 13.3394 4.19426H2.16289C2.02844 4.20372 1.90268 4.26181 1.81089 4.35686C1.71911 4.45192 1.66809 4.5769 1.66809 4.70669C1.66809 4.83647 1.71911 4.96145 1.81089 5.05651C1.90268 5.15156 2.02844 5.20966 2.16289 5.21912Z" fill="#020002"/>
<path d="M3.65887 8.77747H11.9227C12.0572 8.76801 12.1829 8.70992 12.2747 8.61486C12.3665 8.51981 12.4175 8.39483 12.4175 8.26504C12.4175 8.13526 12.3665 8.01028 12.2747 7.91522C12.1829 7.82016 12.0572 7.76207 11.9227 7.75261H3.65887C3.52441 7.76207 3.39866 7.82016 3.30687 7.91522C3.21508 8.01028 3.16406 8.13526 3.16406 8.26504C3.16406 8.39483 3.21508 8.51981 3.30687 8.61486C3.39866 8.70992 3.52441 8.76801 3.65887 8.77747Z" fill="#020002"/>
</svg>
