<svg width="16" height="16" viewBox="0 0 16 16" fill="none" xmlns="http://www.w3.org/2000/svg">
<path d="M13.5812 3.90764H12.3934V2.83391C12.3934 2.26437 12.1584 1.71816 11.7401 1.31543C11.3217 0.912709 10.7544 0.686462 10.1628 0.686462H2.81009C2.21849 0.686462 1.65112 0.912709 1.2328 1.31543C0.814477 1.71816 0.579468 2.26437 0.579468 2.83391V10.001C0.58315 10.5682 0.819785 11.111 1.23771 11.5108C1.65563 11.9107 2.2209 12.1351 2.81009 12.1351H3.99789V13.2088C3.99788 13.776 4.23098 14.3202 4.64629 14.7225C5.0616 15.1249 5.6254 15.3527 6.21457 15.3562H13.5812C14.1704 15.3527 14.7342 15.1249 15.1495 14.7225C15.5648 14.3202 15.7979 13.776 15.7979 13.2088V6.04167C15.7942 5.47677 15.5595 4.93602 15.1446 4.53657C14.7297 4.13713 14.168 3.91116 13.5812 3.90764ZM5.04349 6.04167C5.04349 5.74266 5.16688 5.4559 5.3865 5.24447C5.60612 5.03304 5.90399 4.91425 6.21457 4.91425H13.5812C13.8918 4.91425 14.1896 5.03304 14.4093 5.24447C14.6289 5.4559 14.7523 5.74266 14.7523 6.04167V13.2088C14.7523 13.5078 14.6289 13.7945 14.4093 14.006C14.1896 14.2174 13.8918 14.3362 13.5812 14.3362H6.21457C5.90399 14.3362 5.60612 14.2174 5.3865 14.006C5.16688 13.7945 5.04349 13.5078 5.04349 13.2088V6.04167ZM1.63901 2.83929C1.63901 2.54028 1.76239 2.25352 1.98201 2.04209C2.20163 1.83065 2.4995 1.71187 2.81009 1.71187H10.1767C10.4873 1.71187 10.7852 1.83065 11.0048 2.04209C11.2244 2.25352 11.3478 2.54028 11.3478 2.83929V3.91301H6.21457C5.6278 3.91653 5.0661 4.1425 4.65119 4.54195C4.23627 4.9414 4.00155 5.48215 3.99789 6.04704V11.1472H2.81009C2.49973 11.1465 2.20228 11.0275 1.98283 10.8162C1.76337 10.605 1.63975 10.3186 1.63901 10.0198V2.83929Z" fill="#020002"/>
</svg>
