<svg width="15" height="15" viewBox="0 0 15 15" fill="none" xmlns="http://www.w3.org/2000/svg">
<path d="M7.88077 0.689056C6.51257 0.689057 5.17509 1.09481 4.03751 1.855C2.89994 2.61519 2.01335 3.69566 1.48989 4.95977C0.966431 6.22387 0.829616 7.61483 1.09674 8.9567C1.36387 10.2986 2.02295 11.5311 2.99061 12.4983C3.95828 13.4656 5.19106 14.1242 6.53304 14.3908C7.87502 14.6573 9.26591 14.52 10.5298 13.996C11.7937 13.472 12.8738 12.585 13.6335 11.4471C14.3933 10.3092 14.7985 8.97157 14.7979 7.60337C14.7956 5.76978 14.0661 4.01198 12.7693 2.7157C11.4725 1.41942 9.71435 0.690556 7.88077 0.689056ZM7.88077 13.6137C6.69203 13.6137 5.52999 13.2612 4.54159 12.6008C3.5532 11.9403 2.78284 11.0017 2.32793 9.90342C1.87302 8.80517 1.75399 7.59669 1.9859 6.4308C2.21782 5.26491 2.79025 4.19397 3.63081 3.35341C4.47137 2.51285 5.54231 1.94041 6.7082 1.7085C7.8741 1.47659 9.08257 1.59561 10.1808 2.05052C11.2791 2.50543 12.2178 3.27579 12.8782 4.26418C13.5386 5.25258 13.8911 6.41463 13.8911 7.60337C13.8874 9.19547 13.2527 10.7212 12.1261 11.8462C10.9995 12.9712 9.47288 13.6037 7.88077 13.6052V13.6137Z" fill="#020002"/>
<path d="M10.5217 4.55424L7.25726 9.59829L7.18076 9.71731L5.02712 7.32847C4.56806 6.82123 3.81995 7.57217 4.27618 8.07941L6.87471 10.9613C6.93284 11.0205 7.00385 11.0654 7.08221 11.0926C7.16057 11.1199 7.24416 11.1286 7.32646 11.1182C7.40875 11.1077 7.48751 11.0784 7.55662 11.0325C7.62572 10.9867 7.68329 10.9254 7.72483 10.8536C8.81298 9.17417 9.90019 7.49283 10.9865 5.80959L11.454 5.09264C11.8111 4.51456 10.8929 3.98183 10.5217 4.55424Z" fill="#020002"/>
</svg>
