<svg width="18" height="15" viewBox="0 0 18 15" fill="none" xmlns="http://www.w3.org/2000/svg">
<path d="M10.8714 8.56957C11.313 8.94744 11.9662 8.32454 11.5215 7.94371L8.76169 5.58198L8.73715 5.56427C8.6533 5.49677 8.54748 5.45978 8.43817 5.45978C8.32887 5.45978 8.22304 5.49677 8.13919 5.56427L8.12079 5.57902L5.31494 8.11199C4.88256 8.50167 5.53573 9.12753 5.9681 8.73784L7.98586 6.91339V13.8274C7.98586 13.9448 8.03432 14.0575 8.12058 14.1405C8.20685 14.2235 8.32385 14.2702 8.44584 14.2702C8.56783 14.2702 8.68483 14.2235 8.77109 14.1405C8.85736 14.0575 8.90582 13.9448 8.90582 13.8274V6.88092L10.8714 8.56957Z" fill="#020002"/>
<path d="M14.6586 5.57606C14.6813 4.60415 14.3881 3.64968 13.8198 2.84606C13.2516 2.04245 12.4367 1.42986 11.4891 1.0939C10.5415 0.757945 9.50857 0.715412 8.53464 0.97226C7.56072 1.22911 6.69449 1.7725 6.05704 2.52647C5.61143 2.44394 5.15292 2.45105 4.7103 2.54733C4.26768 2.64362 3.85053 2.82699 3.48506 3.08594C3.1196 3.3449 2.81373 3.67383 2.58667 4.05206C2.3596 4.4303 2.21626 4.84966 2.16565 5.28379C0.17242 5.98346 -0.704599 8.38946 0.656929 10.0781C1.13837 10.6685 1.93566 11.2176 2.74215 11.2294C3.37385 11.2294 4.00555 11.2294 4.63418 11.2294H6.28703C6.40902 11.2294 6.52602 11.1828 6.61229 11.0997C6.69855 11.0167 6.74701 10.9041 6.74701 10.7866C6.74701 10.6692 6.69855 10.5565 6.61229 10.4735C6.52602 10.3905 6.40902 10.3438 6.28703 10.3438H3.34319C2.9445 10.3911 2.54001 10.3308 2.17485 10.1696C1.77382 9.97372 1.44044 9.67003 1.2151 9.29537C0.989763 8.92072 0.882152 8.49117 0.905315 8.05881C0.948577 7.57987 1.14805 7.12637 1.47521 6.76315C1.80237 6.39994 2.24046 6.14563 2.72682 6.03659C2.8235 6.01084 2.9088 5.95537 2.96969 5.87862C3.03059 5.80188 3.06376 5.70806 3.06414 5.61148C3.06538 5.25782 3.15255 4.90934 3.31868 4.5939C3.4848 4.27846 3.72527 4.00482 4.02086 3.79483C4.31646 3.58484 4.65899 3.44434 5.02106 3.38455C5.38314 3.32476 5.75472 3.34734 6.10611 3.4505C6.20421 3.47392 6.3075 3.46682 6.40115 3.43023C6.49481 3.39363 6.57402 3.32942 6.62741 3.2468C7.14133 2.5675 7.87517 2.07188 8.71356 1.83784C9.55195 1.60379 10.4474 1.64461 11.259 1.95386C12.0707 2.26311 12.7526 2.82326 13.1976 3.54626C13.6425 4.26927 13.8253 5.11413 13.7172 5.94803C13.7155 6.06534 13.7612 6.17869 13.8448 6.26409C13.9283 6.3495 14.0431 6.40026 14.1649 6.40561C15.6613 6.50598 16.7714 8.08539 15.9588 9.39911C15.7688 9.69948 15.5043 9.94975 15.189 10.1275C14.8738 10.3053 14.5177 10.4049 14.1526 10.4176C13.0671 10.4501 11.9785 10.4176 10.8929 10.4176C10.7709 10.4176 10.6539 10.4643 10.5677 10.5473C10.4814 10.6303 10.4329 10.743 10.4329 10.8604C10.4329 10.9779 10.4814 11.0905 10.5677 11.1735C10.6539 11.2566 10.7709 11.3033 10.8929 11.3033H13.0211C13.6163 11.3408 14.214 11.3131 14.8027 11.2206C15.2765 11.1138 15.7176 10.9013 16.0904 10.6003C16.4633 10.2993 16.7575 9.91819 16.9493 9.48767C17.7006 7.73408 16.4249 5.95984 14.6586 5.57606Z" fill="#020002"/>
</svg>
